<svg xmlns="http://www.w3.org/2000/svg" viewBox="0 0 512 512" xmlns:xlink="http://www.w3.org/1999/xlink">
 <defs>
  <style type="text/css">
   
    .fil1 {fill:#F9F9F9}
    .fil0 {fill:#52ABB3}
    .fil2 {fill:#AADDE3}
   
  </style>
 </defs>
 <g id="Layer_x0020_1">
  <metadata id="CorelCorpID_0Corel-Layer"></metadata>
  <path class="fil0" d="M357.242 402.112c-1.79174,0 -3.58348,-0.68386 -4.94883,-2.05158l-96.2932 -96.2908 -96.292 96.292c-2.73308,2.73308 -7.16695,2.73426 -9.90003,0l-37.8698 -37.8698c-2.73308,-2.73308 -2.73308,-7.16459 0,-9.89767l96.292 -96.2944 -96.292 -96.292c-2.73308,-2.73426 -2.73308,-7.16577 0,-9.89885l37.8698 -37.8698c2.73308,-2.73308 7.16577,-2.73308 9.89885,0l96.2932 96.292 96.2932 -96.2932c2.7319,-2.73308 7.16577,-2.73308 9.89767,0l37.8698 37.8698c2.7319,2.7319 2.7319,7.16931 0,9.90003l-96.292 96.292 96.292 96.2932c2.73426,2.73308 2.73426,7.16459 0,9.89767l-37.8686 37.8698c-1.36772,1.3689 -3.15946,2.05158 -4.95002,2.05158zm-101.242 109.887c-141.465,0 -255.999,-114.533 -255.999,-255.999 0,-141.463 114.533,-255.999 255.999,-255.999 68.379,0 132.665,26.6292 181.017,74.9802 100.031,100.029 100.029,262.008 0,362.037 -48.3521,48.3521 -112.639,74.9802 -181.017,74.9802zm0 -497.998c-133.439,0 -241.999,108.56 -241.999,241.999 0,133.438 108.56,241.999 241.999,241.999 133.437,0 241.998,-108.561 241.998,-241.999 0,-133.439 -108.56,-241.999 -241.998,-241.999zm0 272.87c1.79056,0 3.58229,0.68386 4.94883,2.0504l96.2932 96.292 27.971 -27.971 -96.292 -96.292c-2.73426,-2.73426 -2.73426,-7.16577 0,-9.89885l96.292 -96.292 -27.971 -27.971 -96.2932 96.292c-2.7319,2.73308 -7.16577,2.73308 -9.89767,0l-96.2932 -96.292 -27.9698 27.9698 96.2908 96.292c2.73426,2.73426 2.73426,7.16577 0,9.89885l-96.292 96.292 27.971 27.971 96.2932 -96.292c1.36536,-1.36536 3.1571,-2.04922 4.94883,-2.04922z" id="id_101" style="fill: rgb(0, 0, 0);"></path>
  <path class="fil1" d="M260.949 288.921l96.2932 96.292 27.971 -27.971 -96.292 -96.292c-2.73426,-2.73426 -2.73426,-7.16577 0,-9.89885l96.292 -96.292 -27.971 -27.971 -96.2932 96.292c-2.7319,2.73308 -7.16577,2.73308 -9.89767,0l-96.2932 -96.292 -27.9698 27.9698 96.2908 96.292c2.73426,2.73426 2.73426,7.16577 0,9.89885l-96.292 96.292 27.971 27.971 96.2932 -96.292c1.36536,-1.36536 3.1571,-2.04922 4.94883,-2.04922 1.79056,0 3.58229,0.68386 4.94883,2.0504z" id="id_102"></path>
  <path class="fil2" d="M256 208.231l96.2932 -96.2932c2.7319,-2.73308 7.16577,-2.73308 9.89767,0l37.8698 37.8698c2.7319,2.7319 2.7319,7.16931 0,9.90003l-96.292 96.292 96.292 96.2932c2.73426,2.73308 2.73426,7.16459 0,9.89767l-37.8686 37.8698c-1.36772,1.3689 -3.15946,2.05158 -4.95002,2.05158 -1.79174,0 -3.58348,-0.68386 -4.94883,-2.05158l-96.2932 -96.2908 -96.292 96.292c-2.73308,2.73308 -7.16695,2.73426 -9.90003,0l-37.8698 -37.8698c-2.73308,-2.73308 -2.73308,-7.16459 0,-9.89767l96.292 -96.2944 -96.292 -96.292c-2.73308,-2.73426 -2.73308,-7.16577 0,-9.89885l37.8698 -37.8698c2.73308,-2.73308 7.16577,-2.73308 9.89885,0l96.2932 96.292zm241.998 47.7687c0,-133.439 -108.56,-241.999 -241.998,-241.999 -133.439,0 -241.999,108.56 -241.999,241.999 0,133.438 108.56,241.999 241.999,241.999 133.437,0 241.998,-108.561 241.998,-241.999z" id="id_103" style="fill: rgb(255, 0, 0);"></path>
 </g>
</svg>
