<svg version="1.1" id="Icons" xmlns="http://www.w3.org/2000/svg" xmlns:xlink="http://www.w3.org/1999/xlink" x="0px" y="0px" viewBox="0 0 32 32" style="enable-background:new 0 0 32 32;" xml:space="preserve">
<style type="text/css">
	.st0{fill:none;stroke:#000000;stroke-width:2;stroke-linecap:round;stroke-linejoin:round;stroke-miterlimit:10;}
</style>
<g>
	<path d="M29,18h-4.5c-0.3,0-0.5-0.1-0.7-0.3L16,9.5l-7.8,8.2C8,17.9,7.8,18,7.5,18H3c-0.4,0-0.8-0.2-0.9-0.6
		C1.9,17,2,16.6,2.3,16.3l13-14c0.4-0.4,1.1-0.4,1.5,0l13,14c0.3,0.3,0.3,0.7,0.2,1.1C29.8,17.8,29.4,18,29,18z" id="id_101" style="fill: rgb(255, 255, 255);"></path>
</g>
<path d="M24.5,20c-0.8,0-1.6-0.3-2.2-0.9L16,12.4l-6.3,6.7C9.1,19.7,8.3,20,7.5,20H6v9c0,0.6,0.4,1,1,1h18c0.6,0,1-0.4,1-1v-9H24.5z
	 M16.6,27.8C16.4,27.9,16.2,28,16,28s-0.4-0.1-0.6-0.2C15.2,27.7,12,25.1,12,22c0-2.2,1.8-4,4-4s4,1.8,4,4
	C20,25.1,16.8,27.7,16.6,27.8z" id="id_102" style="fill: rgb(255, 255, 255);"></path>
</svg>