<svg xmlns="http://www.w3.org/2000/svg" viewBox="0 0 24 24"><title>home</title><g id="Layer_2" data-name="Layer 2"><rect x="10.91" y="16" width="2.19" height="6" id="id_101" style="fill: rgb(255, 255, 255);"></rect><path d="M20.73,11.21l-8-8.88a1,1,0,0,0-1.49,0l-8,8.88A1.67,1.67,0,0,0,4.51,14h.55v6.33A1.67,1.67,0,0,0,6.73,22H8.91V15.67A1.67,1.67,0,0,1,10.58,14h2.84a1.67,1.67,0,0,1,1.67,1.67V22h2.17a1.67,1.67,0,0,0,1.67-1.67V14h.55a1.67,1.67,0,0,0,1.24-2.79Z" id="id_102" style="fill: rgb(255, 255, 255);"></path></g></svg>