<?xml version="1.0" encoding="UTF-8"?>
<!DOCTYPE svg PUBLIC "-//W3C//DTD SVG 1.1//EN" "http://www.w3.org/Graphics/SVG/1.1/DTD/svg11.dtd">
<!-- Creator: CorelDRAW -->
<svg xmlns="http://www.w3.org/2000/svg" xml:space="preserve" version="1.1" style="shape-rendering:geometricPrecision; text-rendering:geometricPrecision; image-rendering:optimizeQuality; fill-rule:evenodd; clip-rule:evenodd"
viewBox="0 0 512 512"
 xmlns:xlink="http://www.w3.org/1999/xlink">
 <defs>
  <style type="text/css">
   <![CDATA[
    .fil0 {fill:#E09B2D}
   ]]>
  </style>
 </defs>
 <g id="Layer_x0020_1">
  <metadata id="CorelCorpID_0Corel-Layer"/>
  <path class="fil0" d="M202 512c0,0 -1,0 -1,0 -2,-1 -4,-3 -4,-6l16 -200 -92 -4c-2,0 -4,-1 -4,-3 -1,-2 -1,-4 0,-5l182 -292c2,-2 4,-3 6,-2 3,1 4,3 4,6l-31 202 113 0c2,0 3,1 4,3 1,2 1,4 0,5l-188 294c-1,1 -3,2 -5,2z"/>
 </g>
</svg>
