<?xml version="1.0" encoding="UTF-8" standalone="no"?> <svg width="512" height="512" viewBox="0 0 512 512" fill="none" xmlns="http://www.w3.org/2000/svg">
<path d="M245.333 117.333C239.675 117.333 234.249 119.581 230.248 123.582C226.248 127.583 224 133.009 224 138.667V266.667C224 272.325 226.248 277.751 230.249 281.751C234.249 285.752 239.675 288 245.333 288H341.333C344.147 288.019 346.937 287.482 349.542 286.418C352.147 285.355 354.516 283.786 356.513 281.803C358.509 279.821 360.094 277.462 361.175 274.864C362.256 272.267 362.813 269.48 362.813 266.667C362.813 263.853 362.256 261.066 361.175 258.469C360.094 255.871 358.509 253.512 356.513 251.53C354.516 249.547 352.147 247.978 349.542 246.915C346.937 245.851 344.147 245.314 341.333 245.333H266.667V138.667C266.667 133.009 264.419 127.583 260.418 123.582C256.417 119.581 250.991 117.333 245.333 117.333V117.333Z" fill="black"/>
<path d="M421.938 90.068C330.438 -1.43201 181.563 -1.43201 90.0631 90.068C86.1041 94.0768 83.8919 99.4892 83.9095 105.123C83.9271 110.758 86.1731 116.156 90.1571 120.14C94.1411 124.124 99.5395 126.37 105.174 126.388C110.808 126.405 116.22 124.193 120.229 120.234C195.083 45.37 316.896 45.37 391.771 120.234C466.625 195.094 466.625 316.906 391.771 391.766C325.747 457.775 222.6 465.342 147.626 414.2L166.667 407.853C172.035 406.063 176.472 402.214 179.002 397.152C181.531 392.09 181.947 386.231 180.157 380.863C178.366 375.496 174.517 371.059 169.456 368.529C164.394 365.999 158.535 365.584 153.167 367.374L97.8671 385.811C93.0029 387.435 88.8859 390.755 86.2692 395.165C83.6525 399.575 82.7111 404.78 83.6171 409.827L95.0001 473.109C95.8866 478.03 98.4722 482.483 102.306 485.693C106.14 488.903 110.979 490.665 115.979 490.672C117.253 490.67 118.525 490.555 119.779 490.328C125.347 489.326 130.29 486.154 133.519 481.509C136.749 476.863 138.001 471.125 137 465.557L135.466 457.029C180.316 483.884 232.841 495.014 284.727 488.656C336.614 482.299 384.899 458.817 421.938 421.929C513.427 330.438 513.427 181.563 421.938 90.068Z" fill="black"/>
<path d="M73.3438 143.7C70.8254 142.471 68.0895 141.751 65.2926 141.581C62.4956 141.41 59.6925 141.793 57.0436 142.707C54.3947 143.621 51.9519 145.048 49.8549 146.906C47.758 148.765 46.048 151.019 44.8228 153.539C43.0941 157.08 41.4691 160.652 39.9478 164.257C38.8369 166.838 38.2471 169.614 38.2121 172.424C38.1771 175.234 38.6978 178.023 39.7441 180.631C40.7905 183.239 42.3418 185.615 44.3092 187.622C46.2765 189.629 48.6209 191.227 51.2078 192.325C53.7947 193.423 56.5731 193.999 59.3833 194.02C62.1934 194.04 64.98 193.506 67.5829 192.446C70.1858 191.387 72.5537 189.824 74.5506 187.846C76.5475 185.869 78.1339 183.516 79.2188 180.924C80.4688 177.997 81.7808 175.091 83.1768 172.216C84.4038 169.698 85.1228 166.963 85.2927 164.167C85.4626 161.371 85.08 158.569 84.1669 155.921C83.2538 153.273 81.828 150.831 79.971 148.734C78.114 146.637 75.862 144.927 73.3438 143.7Z" fill="black"/>
<path d="M42.74 272.083C48.301 272.082 53.6415 269.908 57.6228 266.026C61.6041 262.143 63.9112 256.859 64.052 251.3C64.156 247.274 64.3816 243.246 64.729 239.217C64.9705 236.426 64.66 233.616 63.8152 230.945C62.9704 228.274 61.6078 225.796 59.8054 223.652C58.0029 221.508 55.7958 219.74 53.31 218.449C50.8243 217.158 48.1086 216.37 45.318 216.128C42.5274 215.887 39.7166 216.197 37.046 217.042C34.3754 217.887 31.8973 219.249 29.7533 221.052C27.6093 222.854 25.8413 225.061 24.5503 227.547C23.2593 230.033 22.4705 232.748 22.229 235.539C21.8023 240.42 21.528 245.309 21.406 250.206C21.2606 255.861 23.3671 261.342 27.2622 265.444C31.1573 269.546 36.5221 271.934 42.177 272.081C42.365 272.083 42.552 272.083 42.74 272.083Z" fill="black"/>
<path d="M71.9381 310.8C71.1358 308.116 69.8127 305.617 68.0444 303.444C66.276 301.271 64.0971 299.468 61.632 298.138C59.1669 296.807 56.4638 295.976 53.6772 295.69C50.8906 295.404 48.075 295.67 45.3911 296.472C42.7072 297.274 40.2076 298.597 38.035 300.366C35.8625 302.134 34.0595 304.313 32.729 306.778C31.3985 309.243 30.5666 311.946 30.2808 314.733C29.9949 317.519 30.2608 320.335 31.0631 323.019C32.1771 326.758 33.3851 330.488 34.6881 334.18C35.6176 336.823 37.0585 339.257 38.9286 341.343C40.7987 343.429 43.0614 345.126 45.5875 346.337C48.1135 347.549 50.8534 348.251 53.6508 348.404C56.4482 348.556 59.2482 348.157 61.8911 347.227C64.5339 346.298 66.9678 344.857 69.0538 342.986C71.1398 341.116 72.837 338.854 74.0485 336.328C75.26 333.802 75.9621 331.062 76.1148 328.264C76.2674 325.467 75.8676 322.667 74.9381 320.024C73.8647 316.969 72.8647 313.894 71.9381 310.8Z" fill="black"/>
</svg>
