<svg xmlns="http://www.w3.org/2000/svg" viewBox="0 0 120.96 120.24"><defs><style>.edit-profile-1{fill:#d8e3ee;}.edit-profile-2{fill:#317093;stroke:#010101;stroke-miterlimit:10;}.edit-profile-3{fill:#fff;}.edit-profile-4{fill:#00432c;}.edit-profile-5{fill:#009762;}.edit-profile-6{fill:#010101;}.edit-profile-7{fill:#b0d9c8;}.edit-profile-8{fill:#f39e9e;}.edit-profile-9{font-size:12.75px;font-family:Nexa-Heavy, Nexa;font-weight:800;}.edit-profile-15,.edit-profile-9{fill:#1e4531;}.edit-profile-10{letter-spacing:-0.01em;}.edit-profile-11{letter-spacing:0em;}.edit-profile-12{letter-spacing:-0.01em;}.edit-profile-13{letter-spacing:0em;}.edit-profile-14{letter-spacing:0em;}.edit-profile-16{fill:#2b9464;}</style></defs><g id="Capa_2" data-name="Capa 2"><g id="Capa_1-2" data-name="Capa 1"><path class="edit-profile-1" d="M73.55,25H46.32A2.27,2.27,0,0,0,44,27.16V72.34a2.27,2.27,0,0,0,2.33,2.19H73.55a2.27,2.27,0,0,0,2.33-2.19V27.16A2.27,2.27,0,0,0,73.55,25Z"/><path class="edit-profile-2" d="M73.55,75.07H46.32a2.82,2.82,0,0,1-2.9-2.73V27.16a2.82,2.82,0,0,1,2.9-2.73H73.55a2.82,2.82,0,0,1,2.9,2.73V72.34A2.82,2.82,0,0,1,73.55,75.07ZM46.32,25.51a1.71,1.71,0,0,0-1.76,1.65V72.34A1.72,1.72,0,0,0,46.32,74H73.55a1.72,1.72,0,0,0,1.76-1.66V27.16a1.71,1.71,0,0,0-1.76-1.65Z"/><rect class="edit-profile-3" x="43.99" y="31.31" width="31.89" height="36.88"/><path class="edit-profile-2" d="M75.88,68.73H44a.56.56,0,0,1-.57-.54V31.31a.56.56,0,0,1,.57-.54H75.88a.56.56,0,0,1,.57.54V68.19A.56.56,0,0,1,75.88,68.73ZM44.56,67.66H75.31V31.84H44.56Z"/><path class="edit-profile-2" d="M64.22,28.67H55.65a.54.54,0,0,1-.57-.53.55.55,0,0,1,.57-.54h8.57a.55.55,0,0,1,.57.54A.54.54,0,0,1,64.22,28.67Z"/><path class="edit-profile-2" d="M62.4,72.71a.56.56,0,0,1-.33-.1L59.94,71.2,57.8,72.61a.59.59,0,0,1-.79-.13.51.51,0,0,1,.14-.74l2.46-1.63a.59.59,0,0,1,.65,0l2.46,1.63a.51.51,0,0,1,.14.74A.56.56,0,0,1,62.4,72.71Z"/><path class="edit-profile-4" d="M54.37,50.47a2.92,2.92,0,1,0,3.11,2.91A3,3,0,0,0,54.37,50.47Z"/><ellipse class="edit-profile-5" cx="68.62" cy="51.36" rx="3.1" ry="2.91"/><path class="edit-profile-6" d="M54.37,56.82a3.45,3.45,0,1,1,3.68-3.44A3.56,3.56,0,0,1,54.37,56.82Zm0-5.82a2.38,2.38,0,1,0,2.53,2.38A2.47,2.47,0,0,0,54.37,51Z"/><path class="edit-profile-6" d="M68.62,54.81a3.45,3.45,0,1,1,3.67-3.45A3.57,3.57,0,0,1,68.62,54.81Zm0-5.82a2.38,2.38,0,1,0,2.53,2.37A2.46,2.46,0,0,0,68.62,49Z"/><path class="edit-profile-7" d="M48.32,44.59a1.25,1.25,0,1,0,1.33,1.25A1.3,1.3,0,0,0,48.32,44.59Z"/><path class="edit-profile-6" d="M48.32,47.63a1.79,1.79,0,1,1,1.9-1.79A1.85,1.85,0,0,1,48.32,47.63Zm0-2.51a.72.72,0,1,0,.76.72A.74.74,0,0,0,48.32,45.12Z"/><path class="edit-profile-8" d="M59.94,44.59a1.25,1.25,0,1,0,1.33,1.25A1.3,1.3,0,0,0,59.94,44.59Z"/><path class="edit-profile-6" d="M59.94,47.63a1.79,1.79,0,1,1,1.9-1.79A1.85,1.85,0,0,1,59.94,47.63Zm0-2.51a.72.72,0,1,0,.76.72A.74.74,0,0,0,59.94,45.12Z"/><path class="edit-profile-6" d="M56.24,51.38a.55.55,0,0,1-.32-.1.51.51,0,0,1-.14-.74l2.93-4a.58.58,0,0,1,.79-.14.52.52,0,0,1,.14.75l-2.93,4A.57.57,0,0,1,56.24,51.38Z"/><path class="edit-profile-6" d="M52.51,51.59a.57.57,0,0,1-.46-.21l-3.39-4.22a.51.51,0,0,1,.12-.75.58.58,0,0,1,.79.11L53,50.73a.51.51,0,0,1-.11.75A.6.6,0,0,1,52.51,51.59Z"/><path class="edit-profile-6" d="M66.09,50.29a.53.53,0,0,1-.32-.1l-5-3.2a.52.52,0,0,1-.15-.75.59.59,0,0,1,.79-.14l5,3.21a.51.51,0,0,1,.15.74A.59.59,0,0,1,66.09,50.29Z"/><text class="edit-profile-9" transform="translate(28.43 89.32) scale(0.95 1)"><tspan class="edit-profile-10">E</tspan><tspan x="8.36" y="0">dit </tspan><tspan class="edit-profile-11" x="28.38" y="0">P</tspan><tspan class="edit-profile-12" x="37.22" y="0">r</tspan><tspan class="edit-profile-13" x="42.93" y="0">o</tspan><tspan class="edit-profile-14" x="50.62" y="0">file</tspan></text><path class="edit-profile-15" d="M60.48,10A50.16,50.16,0,1,1,10,60.12,50.31,50.31,0,0,1,60.48,10m0-10C27.13,0,0,27,0,60.12s27.13,60.12,60.48,60.12S121,93.27,121,60.12,93.83,0,60.48,0Z"/><path class="edit-profile-16" d="M117.13,49.38l-1.86.35A55.78,55.78,0,0,0,60.48,4.67V2.8a57.29,57.29,0,1,0,56.65,46.58ZM114,50l-1.83.35A52.68,52.68,0,1,1,60.48,7.78V5.91A54.53,54.53,0,0,1,114,50Z"/></g></g></svg>
