<svg xmlns="http://www.w3.org/2000/svg" viewBox="0 0 318.81 312.2"><defs><style>.find-a-ride-1,.find-a-ride-4{fill:#fff;}.find-a-ride-1{stroke:#010101;stroke-miterlimit:10;}.find-a-ride-2{fill:#00432c;}.find-a-ride-3{fill:#010101;}.find-a-ride-5{font-size:35.69px;font-family:Nexa-Heavy, Nexa;font-weight:800;}.find-a-ride-5,.find-a-ride-6{fill:#1e4531;}.find-a-ride-7{fill:#2b9464;}</style></defs><g id="Capa_2" data-name="Capa 2"><g id="Find_a_Ride" data-name="Find a Ride"><path class="find-a-ride-1" d="M128.25,142l-17,48.36c9.83,2.19,19.69,4.25,29.56,6.27q3.19-24.18,6.4-48.36C140.87,146.36,134.51,144.28,128.25,142Z"/><path class="find-a-ride-1" d="M140.85,198.35a2.19,2.19,0,0,1-.36,0c-8.7-1.79-19-3.93-29.58-6.28a1.73,1.73,0,0,1-1.13-.82,1.66,1.66,0,0,1-.12-1.36l17-48.36a1.67,1.67,0,0,1,.89-1,1.73,1.73,0,0,1,1.34-.06c6,2.14,12.36,4.24,18.93,6.24a1.67,1.67,0,0,1,1.19,1.82l-6.4,48.36a1.65,1.65,0,0,1-.72,1.15A1.68,1.68,0,0,1,140.85,198.35Zm-27.31-9.17c9.16,2,18.07,3.88,25.83,5.47l6-45.16c-5.53-1.7-10.91-3.48-16-5.28Z"/><path class="find-a-ride-1" d="M170,142l5.28,48.36q-17.2,3.28-34.47,6.27,3.19-24.18,6.4-48.36C154.88,146.3,162.5,144.28,170,142Z"/><path class="find-a-ride-1" d="M140.85,198.35a1.74,1.74,0,0,1-1.19-.46,1.66,1.66,0,0,1-.53-1.43l6.41-48.36a1.7,1.7,0,0,1,1.26-1.41c8.07-2.13,15.36-4.07,22.74-6.25a1.79,1.79,0,0,1,1.46.2,1.67,1.67,0,0,1,.76,1.22L177,190.23a1.69,1.69,0,0,1-1.39,1.82c-10.47,2-21.75,4-34.5,6.28Zm8-48.71-6,45c11.17-2,21.21-3.78,30.57-5.56l-4.88-44.81C162.14,146.1,155.76,147.81,148.82,149.64Z"/><path class="find-a-ride-1" d="M170,142l5.28,48.36q17.9,3.27,35.84,6.27l-17-48.36Q182.07,145.36,170,142Z"/><path class="find-a-ride-1" d="M211.16,198.35l-.3,0C197,196,185.64,194,175,192.05a1.69,1.69,0,0,1-1.4-1.47l-5.27-48.36a1.64,1.64,0,0,1,.6-1.46,1.75,1.75,0,0,1,1.59-.33c7.62,2.1,15.73,4.21,24.1,6.25a1.72,1.72,0,0,1,1.22,1.09l16.95,48.36a1.62,1.62,0,0,1-.32,1.63A1.73,1.73,0,0,1,211.16,198.35ZM176.9,189c9.51,1.73,19.68,3.51,31.68,5.55l-15.71-44.81c-7.19-1.77-14.19-3.57-20.84-5.39Z"/><path class="find-a-ride-2" d="M206.24,95.46c0-24.72-20.6-44.75-46-44.75s-46,20-46,44.75a43.91,43.91,0,0,0,11.93,30.06h0l34.08,35.07,34.08-35.07h0A43.91,43.91,0,0,0,206.24,95.46Zm-46,17.91a17.91,17.91,0,1,1,18.4-17.91A18.16,18.16,0,0,1,160.24,113.37Z"/><path class="find-a-ride-3" d="M160.24,162.27a1.75,1.75,0,0,1-1.26-.53L124.9,126.68a45.66,45.66,0,0,1-12.39-31.22c0-25.6,21.41-46.43,47.73-46.43S208,69.86,208,95.46a45.65,45.65,0,0,1-12.37,31.19l-34.11,35.09A1.74,1.74,0,0,1,160.24,162.27Zm0-109.88C135.82,52.39,116,71.71,116,95.46a42.38,42.38,0,0,0,11.47,28.94l32.81,33.74,32.82-33.77a42.28,42.28,0,0,0,11.45-28.91C204.51,71.71,184.65,52.39,160.24,52.39Zm0,62.66c-11.1,0-20.13-8.79-20.13-19.59s9-19.58,20.13-19.58,20.12,8.79,20.12,19.58S171.34,115.05,160.24,115.05Zm4.21-35.81c-11.52,0-20.89,7.18-20.89,16s9.37,16,20.89,16,20.89-7.18,20.89-16S176,79.24,164.45,79.24Z"/><path class="find-a-ride-4" d="M121.83,88.55a1.76,1.76,0,0,1-.31,0,1.4,1.4,0,0,1-1.09-1.67,39.79,39.79,0,0,1,20.73-26.45,1.47,1.47,0,0,1,2,.58,1.38,1.38,0,0,1-.6,1.89,37,37,0,0,0-19.27,24.59A1.45,1.45,0,0,1,121.83,88.55Z"/><path class="find-a-ride-4" d="M151.83,59.47a1.42,1.42,0,0,1-1.4-1.11,1.39,1.39,0,0,1,1.1-1.66,41.86,41.86,0,0,1,5-.75,1.44,1.44,0,0,1,1.57,1.27,1.42,1.42,0,0,1-1.31,1.52,40.09,40.09,0,0,0-4.65.69A1.1,1.1,0,0,1,151.83,59.47Z"/><text class="find-a-ride-5" transform="translate(71.58 238.2) scale(0.92 1)">Find a Ride</text><path class="find-a-ride-6" d="M159.41,25.87c73.45,0,133,58.3,133,130.23s-59.54,130.24-133,130.24S26.41,228,26.41,156.1,86,25.87,159.41,25.87m0-25.87C71.51,0,0,70,0,156.1S71.51,312.2,159.41,312.2s159.4-70,159.4-156.1S247.3,0,159.41,0Z"/><path class="find-a-ride-7" d="M308.72,128.21l-4.91.92c-12.93-66.54-72.75-117-144.4-117V7.27C75.6,7.27,7.42,74,7.42,156.1s68.18,148.84,152,148.84,152-66.77,152-148.84A146.2,146.2,0,0,0,308.72,128.21Zm-8.15,1.52-4.82.9a133.88,133.88,0,0,1,2.43,25.47C298.18,231,235.93,292,159.41,292S20.63,231,20.63,156.1,82.88,20.2,159.41,20.2V15.35C229.45,15.35,287.92,64.69,300.57,129.73Z"/></g></g></svg>
