<svg xmlns="http://www.w3.org/2000/svg" viewBox="0 0 347.22 340.28"><defs><style>.learn-more-1{fill:#fff;}.learn-more-2{fill:#00432c;}.learn-more-3,.learn-more-5{fill:#1e4531;}.learn-more-4{fill:#2b9464;}.learn-more-5{font-size:37.6px;font-family:Nexa-Heavy, Nexa;font-weight:800;}.learn-more-6{letter-spacing:-0.01em;}.learn-more-7{letter-spacing:-0.01em;}.learn-more-8{letter-spacing:-0.01em;}</style></defs><g id="Capa_2" data-name="Capa 2"><g id="Learn_More" data-name="Learn More"><polygon class="learn-more-1" points="250.38 200.48 203.23 214.14 203.23 97.69 250.38 84.04 250.38 200.48"/><rect class="learn-more-1" x="98.39" y="97.7" width="100.51" height="116.44"/><path class="learn-more-2" d="M203.23,179.23a1.67,1.67,0,0,1-1.73-1.61v-63a1.74,1.74,0,0,1,3.46,0v63A1.67,1.67,0,0,1,203.23,179.23Z"/><path class="learn-more-2" d="M203.23,215.74H102.72a1.68,1.68,0,0,1-1.74-1.6V97.7a1.68,1.68,0,0,1,1.74-1.61H203.23A1.67,1.67,0,0,1,205,97.7v7.82a1.73,1.73,0,0,1-3.46,0V99.3h-97V212.53H201.5V189.84a1.73,1.73,0,0,1,3.46,0v24.3A1.67,1.67,0,0,1,203.23,215.74Z"/><polygon class="learn-more-2" points="102.72 97.3 102.72 214.14 141.99 201.08 141.99 84.24 102.72 97.3"/><path class="learn-more-2" d="M102.72,215.74a1.85,1.85,0,0,1-1-.29,1.58,1.58,0,0,1-.74-1.31V97.3a1.62,1.62,0,0,1,1.15-1.51l39.28-13.06a1.83,1.83,0,0,1,1.58.2,1.58,1.58,0,0,1,.74,1.31V201.08a1.62,1.62,0,0,1-1.15,1.51L103.3,215.65A2,2,0,0,1,102.72,215.74Zm1.73-117.31V211.85L140.26,200V86.53Z"/><polygon class="learn-more-1" points="93.93 76.06 93.93 192.9 141.99 201.08 141.99 84.24 93.93 76.06"/><path class="learn-more-2" d="M142,202.69a1.63,1.63,0,0,1-.31,0l-48.06-8.18a1.65,1.65,0,0,1-1.42-1.58V76.06a1.55,1.55,0,0,1,.62-1.23,1.82,1.82,0,0,1,1.43-.35l48.05,8.18a1.65,1.65,0,0,1,1.43,1.58V201.08a1.54,1.54,0,0,1-.63,1.23A1.78,1.78,0,0,1,142,202.69ZM95.67,191.56l44.59,7.59V85.58L95.67,78Z"/><path class="learn-more-2" d="M203.23,215.74a1.74,1.74,0,0,1-1.66-1.12,1.6,1.6,0,0,1,1.14-2l45.94-13.3V86.23l-44.9,13a1.78,1.78,0,0,1-2.18-1.06,1.6,1.6,0,0,1,1.14-2l47.16-13.65a1.79,1.79,0,0,1,1.54.24,1.55,1.55,0,0,1,.71,1.29V200.48A1.63,1.63,0,0,1,250.9,202l-47.15,13.65A1.91,1.91,0,0,1,203.23,215.74Z"/><ellipse class="learn-more-2" cx="182.3" cy="195.59" rx="5.94" ry="5.51"/><path class="learn-more-2" d="M182.3,187.34a1.39,1.39,0,0,1-1.44-1.34v-5.35a1.44,1.44,0,0,1,2.88,0V186A1.39,1.39,0,0,1,182.3,187.34Zm0-10.71a1.39,1.39,0,0,1-1.44-1.34v-5.36a1.44,1.44,0,0,1,2.88,0v5.36A1.39,1.39,0,0,1,182.3,176.63Zm0-10.71a1.39,1.39,0,0,1-1.44-1.33,5.11,5.11,0,0,0-1.8-3.82,1.27,1.27,0,0,1-.05-1.89,1.53,1.53,0,0,1,2-.06,7.64,7.64,0,0,1,2.69,5.75,1.39,1.39,0,0,1-1.43,1.35Zm-7.51-6.6H169a1.34,1.34,0,1,1,0-2.68h5.78a1.34,1.34,0,1,1,0,2.68Zm-11.56,0h-.1a8.91,8.91,0,0,1-6-2.82,1.27,1.27,0,0,1,.17-1.89,1.52,1.52,0,0,1,2,.16,5.78,5.78,0,0,0,4,1.88,1.38,1.38,0,0,1,1.35,1.42A1.4,1.4,0,0,1,163.23,159.3Zm-6.7-7.33a1.4,1.4,0,0,1-1.45-1.34v-5.36a1.45,1.45,0,0,1,2.89,0v5.36A1.4,1.4,0,0,1,156.53,152Zm0-10.72a1.4,1.4,0,0,1-1.45-1.33v-5.36a1.45,1.45,0,0,1,2.89,0v5.36A1.39,1.39,0,0,1,156.53,141.25Zm0-10.71a1.4,1.4,0,0,1-1.45-1.34v-5.36a1.45,1.45,0,0,1,2.89,0v5.36A1.4,1.4,0,0,1,156.53,130.54Z"/><path class="learn-more-2" d="M162.34,118.45a1.84,1.84,0,0,1-1.23-.47L149.49,107.2a1.53,1.53,0,0,1,0-2.28,1.85,1.85,0,0,1,2.45,0l11.63,10.78a1.54,1.54,0,0,1,0,2.28A1.84,1.84,0,0,1,162.34,118.45Z"/><path class="learn-more-2" d="M150.71,118.45a1.81,1.81,0,0,1-1.22-.47,1.53,1.53,0,0,1,0-2.28l11.62-10.78a1.86,1.86,0,0,1,2.46,0,1.54,1.54,0,0,1,0,2.28L151.94,118A1.82,1.82,0,0,1,150.71,118.45Z"/><path class="learn-more-3" d="M173.61,28.19c80,0,144.84,63.55,144.84,142s-64.84,142-144.84,142S28.77,248.53,28.77,170.14,93.62,28.19,173.61,28.19m0-28.19C77.88,0,0,76.32,0,170.14S77.88,340.28,173.61,340.28,347.22,264,347.22,170.14,269.34,0,173.61,0Z"/><path class="learn-more-4" d="M336.23,139.74l-5.34,1C316.8,68.22,251.65,13.21,173.61,13.21V7.92C82.34,7.92,8.08,80.69,8.08,170.14S82.34,332.36,173.61,332.36s165.53-72.77,165.53-162.22A160.19,160.19,0,0,0,336.23,139.74Zm-8.88,1.66-5.25,1a146.49,146.49,0,0,1,2.66,27.77c0,81.67-67.81,148.12-151.15,148.12S22.47,251.81,22.47,170.14,90.27,22,173.61,22V16.73C249.9,16.73,313.58,70.5,327.35,141.4Z"/><text class="learn-more-5" transform="translate(91.06 260.2) scale(0.79 1)"><tspan class="learn-more-6">L</tspan><tspan x="22.6" y="0">earn </tspan><tspan class="learn-more-7" x="117.96" y="0">M</tspan><tspan x="152.26" y="0">o</tspan><tspan class="learn-more-8" x="175.01" y="0">r</tspan><tspan x="191.85" y="0">e</tspan></text></g></g></svg>
