<svg xmlns="http://www.w3.org/2000/svg" viewBox="0 0 88.64 109.7"><defs><style>.log-out-1{fill:#010101;}.log-out-1,.log-out-2,.log-out-3{fill-rule:evenodd;}.log-out-2{fill:#fafafa;}.log-out-3{fill:#e52521;}.log-out-4{font-size:14.82px;fill:#1e4531;font-family:Nexa-Heavy, Nexa;font-weight:800;letter-spacing:-0.01em;}.log-out-5{letter-spacing:0em;}.log-out-6{letter-spacing:0em;}</style></defs><g id="Capa_2" data-name="Capa 2"><g id="Capa_1-2" data-name="Capa 1"><g id="Layer_1"><path id="id_101" data-name="id 101" class="log-out-1" d="M61.84,70.56A1.17,1.17,0,0,1,61,70.2L44.32,53.3,27.65,70.2a1.21,1.21,0,0,1-1.72,0l-6.55-6.65a1.22,1.22,0,0,1,0-1.73l16.67-16.9L19.38,28a1.22,1.22,0,0,1,0-1.73l6.55-6.65a1.21,1.21,0,0,1,1.72,0l16.67,16.9L61,19.64a1.2,1.2,0,0,1,1.71,0l6.56,6.65a1.24,1.24,0,0,1,0,1.73L52.59,44.92l16.67,16.9a1.24,1.24,0,0,1,0,1.73L62.7,70.2a1.21,1.21,0,0,1-.86.36ZM44.32,89.84C19.83,89.84,0,69.74,0,44.92S19.83,0,44.32,0A43.71,43.71,0,0,1,75.65,13.16a45.32,45.32,0,0,1,0,63.52A43.71,43.71,0,0,1,44.32,89.84Zm0-87.38c-23.1,0-41.9,19.05-41.9,42.46s18.8,42.46,41.9,42.46,41.89-19,41.89-42.46S67.42,2.46,44.32,2.46Zm0,47.88a1.17,1.17,0,0,1,.85.36L61.84,67.59l4.84-4.91L50,45.79a1.23,1.23,0,0,1,0-1.74L66.68,27.16l-4.84-4.91L45.17,39.14a1.2,1.2,0,0,1-1.71,0L26.79,22.25,22,27.16,38.62,44.05a1.25,1.25,0,0,1,0,1.74L22,62.68l4.84,4.91L43.46,50.7a1.21,1.21,0,0,1,.86-.36Z"/><path id="id_102" data-name="id 102" class="log-out-2" d="M45.17,50.7,61.84,67.59l4.84-4.91L50,45.79a1.23,1.23,0,0,1,0-1.74L66.68,27.16l-4.84-4.91L45.17,39.14a1.2,1.2,0,0,1-1.71,0L26.79,22.25,22,27.16,38.62,44.05a1.25,1.25,0,0,1,0,1.74L22,62.68l4.84,4.91L43.46,50.7a1.21,1.21,0,0,1,.86-.36,1.17,1.17,0,0,1,.85.36Z"/><path id="id_103" data-name="id 103" class="log-out-3" d="M44.32,36.54,61,19.64a1.2,1.2,0,0,1,1.71,0l6.56,6.65a1.24,1.24,0,0,1,0,1.73L52.59,44.92l16.67,16.9a1.24,1.24,0,0,1,0,1.73L62.7,70.2a1.21,1.21,0,0,1-.86.36A1.17,1.17,0,0,1,61,70.2L44.32,53.3,27.65,70.2a1.21,1.21,0,0,1-1.72,0l-6.55-6.65a1.22,1.22,0,0,1,0-1.73l16.67-16.9L19.38,28a1.22,1.22,0,0,1,0-1.73l6.55-6.65a1.21,1.21,0,0,1,1.72,0l16.67,16.9Zm41.89,8.38c0-23.41-18.79-42.46-41.89-42.46S2.42,21.51,2.42,44.92s18.8,42.46,41.9,42.46S86.21,68.33,86.21,44.92Z"/></g><text class="log-out-4" transform="translate(19.2 105.49) scale(0.93 1)">L<tspan class="log-out-5" x="8.9" y="0">og </tspan><tspan class="log-out-6" x="30.43" y="0">O</tspan><tspan class="log-out-5" x="42.61" y="0">ut</tspan></text></g></g></svg>
