<svg xmlns="http://www.w3.org/2000/svg" viewBox="0 0 120.96 120.24"><defs><style>.offer-a-ride-1{fill:#f7f4bc;}.offer-a-ride-1,.offer-a-ride-2,.offer-a-ride-3,.offer-a-ride-4,.offer-a-ride-5,.offer-a-ride-6,.offer-a-ride-7,.offer-a-ride-8{stroke:#010101;stroke-miterlimit:10;}.offer-a-ride-2{fill:#317093;}.offer-a-ride-3{fill:#f4afad;}.offer-a-ride-4{fill:#00432c;}.offer-a-ride-5{fill:#fdfdfd;}.offer-a-ride-6{fill:#b8c1c6;}.offer-a-ride-7{fill:#fff;}.offer-a-ride-8{fill:#c4e1f0;}.offer-a-ride-9{font-size:13.67px;font-family:Nexa-Heavy, Nexa;font-weight:800;}.offer-a-ride-12,.offer-a-ride-9{fill:#1e4531;}.offer-a-ride-10{letter-spacing:0em;}.offer-a-ride-11{letter-spacing:-0.02em;}.offer-a-ride-13{fill:#2b9464;}</style></defs><g id="Capa_2" data-name="Capa 2"><g id="Capa_1-2" data-name="Capa 1"><rect class="offer-a-ride-1" x="39.7" y="30.82" width="11.72" height="6.13"/><path class="offer-a-ride-2" d="M51.42,37.51H39.7a.52.52,0,0,1-.48-.56V30.82a.52.52,0,0,1,.48-.55H51.42a.52.52,0,0,1,.48.55V37A.52.52,0,0,1,51.42,37.51ZM40.19,36.39H50.94v-5H40.19Z"/><rect class="offer-a-ride-3" x="41.86" y="27.78" width="7.4" height="3.05"/><path class="offer-a-ride-2" d="M49.26,31.38h-7.4a.52.52,0,0,1-.48-.56v-3a.52.52,0,0,1,.48-.56h7.4a.53.53,0,0,1,.49.56v3A.53.53,0,0,1,49.26,31.38Zm-6.92-1.11h6.44V28.33H42.34Z"/><path class="offer-a-ride-4" d="M89.73,47.35H70.46L65.56,37H35.35l-4.06,10.4H28.63V62.79h8.62V60.91c0-3.5,2.47-6.34,5.51-6.34h4.7c3,0,5.51,2.84,5.51,6.34v1.88H72.7l.13-3.12c.12-2.85,2.16-5.1,4.64-5.1H83c2.48,0,4.53,2.25,4.64,5.1l.13,3.12h2.83L92.1,50.24Z"/><polygon class="offer-a-ride-5" points="28.63 53.23 91.76 53.23 92.1 50.24 91.32 49.3 28.63 49.3 28.63 53.23"/><path class="offer-a-ride-2" d="M90.57,63.35H87.74a.51.51,0,0,1-.48-.53l-.13-3.12C87,57.14,85.2,55.13,83,55.13h-5.5c-2.23,0-4,2-4.16,4.57l-.13,3.12a.51.51,0,0,1-.48.53H53a.52.52,0,0,1-.48-.56V60.91c0-3.18-2.26-5.78-5-5.78h-4.7c-2.77,0-5,2.6-5,5.78v1.88a.53.53,0,0,1-.49.56H28.63a.53.53,0,0,1-.48-.56V47.35a.52.52,0,0,1,.48-.55H31L34.9,36.72a.5.5,0,0,1,.45-.33H65.56a.49.49,0,0,1,.43.29L70.75,46.8h19a.46.46,0,0,1,.35.17l2.37,2.89a.61.61,0,0,1,.13.46L91.05,62.87A.51.51,0,0,1,90.57,63.35ZM88.2,62.24h2l1.44-11.81-2.07-2.52H70.46a.46.46,0,0,1-.42-.29L65.27,37.51H35.66L31.73,47.58a.49.49,0,0,1-.44.33H29.12V62.24h7.65V60.91c0-3.8,2.69-6.89,6-6.89h4.7c3.3,0,6,3.09,6,6.89v1.33H72.24l.11-2.6c.13-3.15,2.38-5.62,5.12-5.62H83c2.75,0,5,2.47,5.13,5.62Z"/><path class="offer-a-ride-6" d="M45.11,55.78c-3.36,0-6.09,3.14-6.09,7s2.73,7,6.09,7,6.09-3.13,6.09-7S48.48,55.78,45.11,55.78Z"/><ellipse class="offer-a-ride-7" cx="45.11" cy="62.79" rx="4.15" ry="4.78"/><path class="offer-a-ride-2" d="M45.11,70.36c-3.63,0-6.58-3.39-6.58-7.57s2.95-7.56,6.58-7.56,6.58,3.39,6.58,7.56S48.74,70.36,45.11,70.36Zm0-14c-3.09,0-5.61,2.9-5.61,6.45s2.52,6.46,5.61,6.46,5.61-2.9,5.61-6.46S48.2,56.34,45.11,56.34Z"/><ellipse class="offer-a-ride-2" cx="45.11" cy="62.79" rx="1.96" ry="2.25"/><path class="offer-a-ride-6" d="M80.22,55.78c-3.36,0-6.09,3.14-6.09,7s2.73,7,6.09,7,6.09-3.13,6.09-7S83.59,55.78,80.22,55.78Z"/><ellipse class="offer-a-ride-7" cx="80.22" cy="62.79" rx="4.15" ry="4.78"/><path class="offer-a-ride-2" d="M80.22,70.36c-3.63,0-6.58-3.39-6.58-7.57s3-7.56,6.58-7.56,6.58,3.39,6.58,7.56S83.85,70.36,80.22,70.36Zm0-14c-3.09,0-5.61,2.9-5.61,6.45s2.52,6.46,5.61,6.46,5.61-2.9,5.61-6.46S83.31,56.34,80.22,56.34Z"/><path class="offer-a-ride-2" d="M80.22,60.54a2.28,2.28,0,1,0,2,2.25A2.12,2.12,0,0,0,80.22,60.54Z"/><polygon class="offer-a-ride-8" points="55.76 47.35 68.83 47.35 64.7 38.6 55.76 38.6 55.76 47.35"/><polygon class="offer-a-ride-8" points="41.9 38.6 36.28 38.6 32.87 47.35 41.9 47.35 41.9 38.6"/><rect class="offer-a-ride-8" x="43.34" y="38.6" width="10.99" height="8.75"/><path class="offer-a-ride-2" d="M68.83,47.91H55.76a.53.53,0,0,1-.49-.56V38.6a.52.52,0,0,1,.49-.55H64.7a.48.48,0,0,1,.43.29l4.12,8.75a.63.63,0,0,1,0,.55A.47.47,0,0,1,68.83,47.91ZM56.24,46.8H68l-3.59-7.64H56.24Z"/><path class="offer-a-ride-2" d="M41.9,47.91h-9a.47.47,0,0,1-.41-.26.65.65,0,0,1,0-.53l3.41-8.75a.49.49,0,0,1,.45-.32H41.9a.51.51,0,0,1,.48.55v8.75A.52.52,0,0,1,41.9,47.91ZM33.61,46.8h7.81V39.16H36.59Z"/><path class="offer-a-ride-2" d="M54.32,47.91h-11a.53.53,0,0,1-.49-.56V38.6a.52.52,0,0,1,.49-.55h11a.52.52,0,0,1,.49.55v8.75A.53.53,0,0,1,54.32,47.91ZM43.82,46.8h10V39.16h-10Z"/><path class="offer-a-ride-2" d="M60.37,51.12H56.43a.57.57,0,0,1,0-1.12h3.94a.57.57,0,0,1,0,1.12Z"/><polygon class="offer-a-ride-1" points="92.04 50.76 89.64 50.76 89.64 54.97 91.47 54.97 92.04 50.76"/><path class="offer-a-ride-2" d="M91.47,55.53H89.64a.53.53,0,0,1-.48-.56V50.76a.53.53,0,0,1,.48-.56H92a.47.47,0,0,1,.37.19.65.65,0,0,1,.11.45L92,55.06A.51.51,0,0,1,91.47,55.53Zm-1.34-1.12h.93l.42-3.1H90.13Z"/><path class="offer-a-ride-7" d="M45.27,45.53a.38.38,0,0,1-.28-.14.51.51,0,0,1,0-.66l3.57-4.1a.37.37,0,0,1,.57,0,.5.5,0,0,1,0,.65l-3.57,4.11A.38.38,0,0,1,45.27,45.53Z"/><path class="offer-a-ride-7" d="M48.36,45a.35.35,0,0,1-.28-.14.5.5,0,0,1,0-.65l.51-.59a.37.37,0,0,1,.57,0,.54.54,0,0,1,0,.66l-.51.58A.35.35,0,0,1,48.36,45Z"/><path class="offer-a-ride-7" d="M49.94,43.19a.37.37,0,0,1-.28-.14.51.51,0,0,1,0-.66l2-2.29a.37.37,0,0,1,.57,0,.51.51,0,0,1,0,.66l-2,2.29A.4.4,0,0,1,49.94,43.19Z"/><path class="offer-a-ride-7" d="M36.54,45a.37.37,0,0,1-.29-.14.53.53,0,0,1,0-.65l.51-.59a.37.37,0,0,1,.57,0,.51.51,0,0,1,0,.66l-.51.58A.34.34,0,0,1,36.54,45Z"/><path class="offer-a-ride-7" d="M38.12,43.19a.38.38,0,0,1-.29-.14.51.51,0,0,1,0-.66l2-2.29a.37.37,0,0,1,.57,0,.51.51,0,0,1,0,.66l-2,2.29A.38.38,0,0,1,38.12,43.19Z"/><path class="offer-a-ride-7" d="M57.22,45.76a.4.4,0,0,1-.29-.14.53.53,0,0,1,0-.65l.46-.53a.37.37,0,0,1,.57,0,.51.51,0,0,1,0,.66l-.46.52A.37.37,0,0,1,57.22,45.76Z"/><path class="offer-a-ride-7" d="M58.51,44.27a.39.39,0,0,1-.29-.13.54.54,0,0,1,0-.66l2.28-2.62a.37.37,0,0,1,.57,0,.5.5,0,0,1,0,.65l-2.28,2.63A.35.35,0,0,1,58.51,44.27Z"/><path class="offer-a-ride-7" d="M60.31,45.23A.39.39,0,0,1,60,45.1a.54.54,0,0,1,0-.66l.51-.58a.36.36,0,0,1,.57,0,.5.5,0,0,1,0,.65l-.5.59A.39.39,0,0,1,60.31,45.23Z"/><path class="offer-a-ride-7" d="M61.89,43.42a.38.38,0,0,1-.29-.14.51.51,0,0,1,0-.66l2-2.29a.37.37,0,0,1,.57,0,.54.54,0,0,1,0,.66l-2,2.29A.38.38,0,0,1,61.89,43.42Z"/><path class="offer-a-ride-2" d="M53.05,37.51H37.38a.45.45,0,0,1-.38-.22.67.67,0,0,1-.09-.48l.51-2.3a.5.5,0,0,1,.47-.42H52.55a.51.51,0,0,1,.47.42l.5,2.3a.62.62,0,0,1-.08.48A.48.48,0,0,1,53.05,37.51ZM38,36.39H52.43l-.26-1.19H38.27Z"/><path class="offer-a-ride-2" d="M48.87,37.51a.5.5,0,0,1-.46-.38L45.72,28a.58.58,0,0,1,.31-.7.47.47,0,0,1,.61.35l2.69,9.17a.59.59,0,0,1-.3.71Z"/><path class="offer-a-ride-2" d="M42,37.51a.4.4,0,0,1-.15,0,.59.59,0,0,1-.31-.71l2.69-9.17a.48.48,0,0,1,.62-.35.58.58,0,0,1,.3.7l-2.69,9.18A.5.5,0,0,1,42,37.51Z"/><text class="offer-a-ride-9" transform="translate(24.72 83.33) scale(0.91 1)">O<tspan class="offer-a-ride-10" x="11.29" y="0">ff</tspan><tspan x="22.06" y="0">e</tspan><tspan class="offer-a-ride-11" x="30.09" y="0">r</tspan><tspan x="36.06" y="0" xml:space="preserve"> a Ride</tspan></text><path class="offer-a-ride-12" d="M60.48,10A50.16,50.16,0,1,1,10,60.12,50.31,50.31,0,0,1,60.48,10m0-10C27.13,0,0,27,0,60.12s27.13,60.12,60.48,60.12S121,93.27,121,60.12,93.83,0,60.48,0Z"/><path class="offer-a-ride-13" d="M117.13,49.38l-1.86.35A55.78,55.78,0,0,0,60.48,4.67V2.8a57.29,57.29,0,1,0,56.65,46.58ZM114,50l-1.83.35A52.68,52.68,0,1,1,60.48,7.78V5.91A54.53,54.53,0,0,1,114,50Z"/></g></g></svg>
